<?xml version="1.0" encoding="utf-8"?>
<!-- Generator: Adobe Illustrator 23.0.1, SVG Export Plug-In . SVG Version: 6.00 Build 0)  -->
<svg version="1.1" id="Layer_1" xmlns="http://www.w3.org/2000/svg" xmlns:xlink="http://www.w3.org/1999/xlink" x="0px" y="0px"
	width="16.000000pt" height="16.000000pt" viewBox="0 0 16 16" style="enable-background:new 0 0 16 16;" xml:space="preserve"
	preserveAspectRatio="xMidYMid meet">
<style type="text/css">
	.st0{fill:url(#SVGID_1_);}
	.st1{fill:#FF3452;}
	.st2{fill:#FFFFFF;}
</style>
<title>Asset 26</title>
<g>
	<g id="Layer_1-2">
		
			<linearGradient id="SVGID_1_" gradientUnits="userSpaceOnUse" x1="0" y1="748" x2="16" y2="748" gradientTransform="matrix(1 0 0 1 0 -740)">
			<stop  offset="0" style="stop-color:#F82752"/>
			<stop  offset="1" style="stop-color:#DA0F47"/>
		</linearGradient>
		<path class="st0" d="M3.8,0h8.3C14.3,0,16,1.7,16,3.8v8.3c0,2.2-1.7,3.9-3.8,3.9H3.9C1.7,16,0,14.3,0,12.2V3.9C0,1.7,1.7,0,3.8,0z
			"/>
		<path class="st1" d="M11.8,3.2c-0.1,0.1-0.2,0.2-0.3,0.3C11,4.3,10.6,5.1,10.2,6c-0.6,1.4-1.1,2.7-1.6,4.2
			c-0.2,0.5-0.4,0.9-0.6,1.4c-0.1,0.2-0.2,0.3-0.3,0.5c-0.1,0.1-0.3,0.2-0.4,0.2c-0.1,0-0.2,0-0.2,0c-0.2,0-0.3-0.2-0.3-0.3
			c-0.1-0.2-0.1-0.4-0.1-0.6c0-0.8,0.1-1.6,0.2-2.4l0.7-3.2c0.1-0.4,0.2-0.7,0.2-1.1c0,0,0-0.1,0-0.2c-0.1,0-0.1,0.1-0.1,0.1
			C7.1,5.4,6.5,6.4,6.1,7.4c-0.6,1.3-1,2.7-1.5,4c0,0.2-0.1,0.3-0.2,0.5c0,0.1-0.2,0.2-0.3,0.1c-0.2,0-0.4-0.2-0.4-0.4
			c0-0.2-0.1-0.4-0.1-0.7c0-0.8,0.1-1.7,0.2-2.5c0.1-1,0.3-2,0.6-3C4.6,4.8,4.8,4.3,5,3.8c0-0.1,0.1-0.2,0.1-0.3
			c0-0.1,0.1-0.2,0.2-0.2c0.2,0,0.4,0.1,0.5,0.2C6,3.6,6,3.7,6,3.8L5.5,6.4C5.3,7.2,5.2,8,5.1,8.8l0.1-0.2c0.3-0.8,0.7-1.7,1-2.5
			c0.2-0.4,0.4-0.8,0.7-1.2c0.2-0.3,0.5-0.7,0.7-1c0.1-0.1,0.1-0.2,0.2-0.2C7.9,3.5,8,3.5,8.1,3.5c0.4,0,0.7,0.3,0.7,0.6s0,0.7,0,1
			C8.7,6,8.5,6.9,8.3,7.8C8.2,8.6,8,9.3,7.8,10.1v0.1c0-0.1,0-0.1,0.1-0.1c0.3-0.7,0.5-1.5,0.8-2.2c0.4-1.1,0.9-2.1,1.4-3.2
			c0.2-0.4,0.5-0.9,0.8-1.3l0.3-0.5c0.1-0.2,0.3-0.4,0.5-0.5c0.1,0,0.2,0,0.3,0c0.4,0,0.8,0.3,0.8,0.7l0,0c0,0.4,0,0.8-0.1,1.2
			c-0.2,1-0.4,1.9-0.6,2.8C12,7.8,11.8,8.4,11.7,9c-0.1,0.7-0.2,1.5-0.3,2.2c-0.1,0.5-0.1,1-0.1,1.5c0,0.3,0,0.5,0,0.8v0.1
			c0.1,0,0.1,0,0.2-0.1c0.2-0.2,0.3-0.4,0.5-0.6c0.1-0.3,0.3-0.6,0.4-0.9c0.4-0.7,0.7-1.5,1.1-2.2c0-0.1,0.2-0.2,0.3-0.2
			C14,9.6,14,9.7,14,9.9c-0.1,0.1-0.2,0.3-0.3,0.5c-0.3,0.7-0.7,1.5-1,2.3c-0.2,0.3-0.4,0.6-0.6,0.9c-0.1,0.1-0.3,0.2-0.4,0.3
			c-0.4,0.2-0.9,0.1-1.1-0.3c0-0.1-0.1-0.1-0.1-0.2c-0.1-0.2-0.1-0.5-0.2-0.7c-0.1-0.8-0.1-1.5,0-2.3c0.2-1.4,0.4-2.8,0.8-4.2
			C11.4,5.2,11.6,4.2,11.8,3.2L11.8,3.2L11.8,3.2L11.8,3.2z"/>
		<path class="st2" d="M11.5,3.1c-0.1,0.1-0.2,0.3-0.3,0.4c-0.5,0.8-1,1.6-1.3,2.5c-0.6,1.3-1.2,2.7-1.7,4.1c-0.2,0.5-0.4,1-0.6,1.5
			c-0.1,0.2-0.2,0.3-0.3,0.5c0,0.1-0.2,0.2-0.3,0.1c-0.1,0-0.2,0-0.2,0c-0.2,0-0.3-0.2-0.3-0.3c-0.1-0.2-0.1-0.4-0.1-0.6
			c0-0.8,0.1-1.6,0.2-2.4l0.7-3.2C7.4,5.3,7.5,5,7.5,4.6c0,0,0-0.1,0-0.2c-0.1,0-0.1,0.1-0.1,0.1C6.8,5.3,6.2,6.3,5.8,7.3
			c-0.6,1.3-1,2.7-1.5,4c0,0.2-0.1,0.3-0.2,0.5c0,0.1-0.2,0.2-0.3,0.1c-0.2,0-0.4-0.2-0.4-0.4s-0.1-0.4-0.1-0.7
			c0-0.8,0.1-1.7,0.2-2.5c0.1-1,0.3-2,0.6-3c0.1-0.5,0.3-1.1,0.5-1.6c0-0.1,0.1-0.2,0.1-0.3c0-0.1,0.1-0.2,0.2-0.2
			c0.2,0,0.4,0.1,0.5,0.2c0.1,0.1,0.1,0.2,0.1,0.3L5,6.3C5,7.2,4.9,8,4.7,8.8l0.1-0.2c0.3-0.8,0.7-1.7,1-2.5C6,5.7,6.2,5.3,6.5,4.9
			c0.2-0.3,0.5-0.7,0.7-1c0.1-0.1,0.1-0.2,0.2-0.2c0.1-0.1,0.2-0.1,0.3-0.1c0.4,0,0.7,0.3,0.7,0.6s0,0.7,0,1C8.4,6,8.2,6.9,8,7.8
			c-0.2,0.8-0.3,1.5-0.5,2.3v0.1c0-0.1,0-0.1,0.1-0.1c0.3-0.7,0.5-1.5,0.8-2.2c0.4-1.1,0.9-2.1,1.4-3.2c0.2-0.5,0.5-0.9,0.7-1.3
			l0.3-0.5c0.2-0.2,0.4-0.3,0.6-0.5c0.1-0.1,0.2-0.1,0.3-0.1c0.4,0,0.8,0.3,0.8,0.7l0,0c0,0.4,0,0.8-0.1,1.2c-0.1,1.1-0.4,2-0.6,2.9
			c-0.1,0.7-0.3,1.3-0.4,1.9c-0.1,0.7-0.2,1.4-0.3,2.1C11,11.6,11,12.2,11,12.7c0,0.3,0,0.5,0,0.8v0.1c0.1,0,0.1,0,0.2-0.1
			c0.2-0.2,0.3-0.4,0.5-0.6c0.1-0.3,0.2-0.6,0.4-0.9c0.4-0.7,0.7-1.5,1.1-2.2c0-0.1,0.2-0.2,0.3-0.2c0.2,0,0.2,0.1,0.1,0.2
			c-0.1,0.1-0.1,0.3-0.2,0.5c-0.3,0.8-0.7,1.6-1,2.4c-0.2,0.3-0.4,0.6-0.6,0.8s-0.3,0.3-0.4,0.4c-0.4,0.2-0.9,0.1-1.2-0.3
			c0,0-0.1-0.1-0.1-0.2c0-0.2,0-0.5-0.1-0.7c0-0.8,0-1.6,0-2.3c0.2-1.4,0.4-2.8,0.8-4.2C11,5.2,11.3,4.2,11.5,3.1
			C11.5,3.2,11.5,3.2,11.5,3.1C11.5,3.2,11.5,3.2,11.5,3.1L11.5,3.1z"/>
	</g>
</g>
</svg>
